# xmcd CD database file
#
# Track frame offsets:
#	150
#	105864
#	173317
#	190950
#
# Disc length: 2772 seconds
#
# Revision: 0
# Processed by: cddbd v1.4PL0 Copyright (c) Steve Scherf et al.
# Submitted via: CDex 1.50Beta7
#
DISCID=200ad204
DTITLE=Calawahake - The Stars Like Motes of Dust
DYEAR=2003
DGENRE=New Age
TTITLE0=The Awakening
TTITLE1=A Very Sirius Meditation
TTITLE2=Moonlight on Snow
TTITLE3=The Rythms of Sirius B
EXTD=YEAR: 2003
EXTT0=
EXTT1=
EXTT2=
EXTT3=
PLAYORDER=
